<svg width="80" height="80" viewBox="0 0 80 80" fill="none" xmlns="http://www.w3.org/2000/svg">
<path d="M41.7956 30.4511H14.4622V22.6859C14.4622 20.1126 16.5533 18.0266 19.133 18.0266H37.1246C39.7043 18.0266 41.7956 20.1126 41.7956 22.6859V30.4511Z" fill="url(#paint0_linear_190_178)"/>
<path d="M25.5004 0C21.9105 0 19 2.91318 19 6.50894V73.1911C19 76.7868 21.9105 79.7 25.5004 79.7H49.4898L69.1026 73.0653L68.4343 26.8784L57.3916 19.4037L49.4898 0H25.5004Z" fill="#E5E5E5"/>
<path d="M50.4704 79.3683L52.4317 78.7048L52.3997 78.6101L54.361 77.9466L54.393 78.0413L56.3543 77.3779L56.3222 77.2831L58.2835 76.6197L58.3156 76.7144L60.2768 76.0509L60.2448 75.9562L62.2061 75.2927L62.2381 75.3875L64.1994 74.724L64.1674 74.6292L66.1286 73.9658L66.1607 74.0605L68.122 73.397L68.0899 73.3023L69.0016 72.9939L68.9887 72.1045L69.0887 72.1031L69.0608 70.1786L68.9608 70.1801L68.933 68.2556L69.033 68.2542L69.0051 66.3297L68.9052 66.3312L68.8773 64.4067L68.9773 64.4053L68.9495 62.4808L68.8495 62.4823L68.8216 60.5578L68.9216 60.5564L68.8938 58.6319L68.7938 58.6334L68.7659 56.7089L68.8659 56.7075L68.8381 54.783L68.7381 54.7845L68.7102 52.86L68.8102 52.8586L68.7824 50.9341L68.6824 50.9355L68.6545 49.0111L68.7545 49.0096L68.7267 47.0852L68.6267 47.0866L68.5989 45.1622L68.6988 45.1607L68.671 43.2363L68.571 43.2377L68.5432 41.3133L68.6432 41.3118L68.6153 39.3874L68.5153 39.3888L68.4875 37.4644L68.5875 37.4629L68.5596 35.5385L68.4596 35.5399L68.4318 33.6155L68.5318 33.614L68.5039 31.6896L68.4039 31.691L68.3761 29.7666L68.4761 29.7651L68.4482 27.8407L68.3482 27.8421L68.3351 26.932L67.458 26.3384L67.5141 26.2555L65.6736 25.0098L65.6176 25.0926L63.7771 23.8468L63.8332 23.764L61.9927 22.5182L61.9367 22.601L60.0962 21.3552L60.1523 21.2724L58.3118 20.0266L58.2558 20.1094L57.3356 19.4865L57.3105 19.4695L57.299 19.4414L56.9039 18.4712L56.9965 18.4335L56.2063 16.4932L56.1137 16.5309L55.3236 14.5905L55.4162 14.5528L54.626 12.6124L54.5334 12.6501L53.7432 10.7098L53.8358 10.672L53.0456 8.73167L52.953 8.76939L52.1628 6.82902L52.2554 6.7913L51.4653 4.85093L51.3726 4.88865L50.5825 2.94827L50.6751 2.91056L49.8849 0.970187L49.7923 1.0079L49.4225 0.1H48.4902V0H46.4911V0.1H44.492V0H42.4929V0.1H40.4938V0H38.4946V0.1H36.4955V0H34.4964V0.1H32.4973V0H30.4982V0.1H28.499V0H26.4999V0.1H25.5004C25.2168 0.1 24.9375 0.118459 24.6637 0.154233L24.6508 0.0550761C24.0772 0.130028 23.5271 0.279839 23.0106 0.494404L23.049 0.586752C22.5286 0.802952 22.0428 1.08595 21.6023 1.42511L21.5413 1.34587C21.091 1.6925 20.6875 2.09686 20.3415 2.54791L20.4209 2.60876C20.0827 3.04976 19.8005 3.53604 19.585 4.05696L19.4926 4.01872C19.2788 4.53537 19.1295 5.0856 19.0549 5.65934L19.154 5.67225C19.1184 5.94604 19.1 6.22531 19.1 6.50894V7.48956H19V9.4508H19.1V11.412H19V13.3733H19.1V15.3345H19V17.2958H19.1V19.257H19V21.2182H19.1V23.1795H19V25.1407H19.1V27.1019H19V29.0632H19.1V31.0244H19V32.9857H19.1V34.9469H19V36.9081H19.1V38.8694H19V40.8306H19.1V42.7919H19V44.7531H19.1V46.7143H19V48.6756H19.1V50.6368H19V52.5981H19.1V54.5593H19V56.5205H19.1V58.4818H19V60.443H19.1V62.4042H19V64.3655H19.1V66.3267H19V68.288H19.1V70.2492H19V72.2104H19.1V73.1911C19.1 73.4747 19.1184 73.754 19.154 74.0277L19.0549 74.0406C19.1295 74.6144 19.2788 75.1646 19.4926 75.6813L19.585 75.643C19.8005 76.164 20.0827 76.6502 20.4209 77.0912L20.3415 77.1521C20.6875 77.6031 21.091 78.0075 21.5413 78.3541L21.6023 78.2749C22.0428 78.614 22.5286 78.897 23.049 79.1132L23.0106 79.2056C23.5271 79.4202 24.0772 79.57 24.6508 79.6449L24.6637 79.5458C24.9375 79.5815 25.2168 79.6 25.5004 79.6H26.4999V79.7H28.499V79.6H30.4982V79.7H32.4973V79.6H34.4964V79.7H36.4955V79.6H38.4946V79.7H40.4938V79.6H42.4929V79.7H44.492V79.6H46.4911V79.7H48.4902V79.6H49.4733L50.4384 79.2735L50.4704 79.3683Z" stroke="#2A457A" stroke-opacity="0.8" stroke-width="0.2" stroke-dasharray="2 2"/>
<path d="M59.6436 0H49.4902V79.7H73.4797C77.0696 79.7 79.98 76.7868 79.98 73.1911V20.3697L67.5292 12.8566L59.6436 0Z" fill="#B9B9B9"/>
<path d="M67.4439 12.9089L67.4567 12.9296L67.4775 12.9422L79.88 20.4261V73.1911C79.88 76.7317 77.0142 79.6 73.4797 79.6H49.5902V0.1H59.5876L67.4439 12.9089Z" stroke="#2A457A" stroke-opacity="0.8" stroke-width="0.2"/>
<path d="M66.1434 20.3697H79.9795L59.6431 0V13.861C59.6431 17.4567 62.5535 20.3697 66.1434 20.3697Z" fill="#2A457A"/>
<path d="M79.2532 19.6422L77.8006 18.1872L77.7299 18.2579L76.2773 16.8029L76.348 16.7323L74.8954 15.2773L74.8246 15.3479L73.372 13.8929L73.4428 13.8223L71.9902 12.3673L71.9194 12.438L70.4668 10.983L70.5376 10.9123L69.085 9.45736L69.0142 9.52801L67.5616 8.07303L67.6324 8.00238L66.1798 6.5474L66.109 6.61806L64.6564 5.16308L64.7272 5.09242L63.2746 3.63745L63.2038 3.7081L61.7512 2.25312L61.822 2.18247L60.3694 0.727489L60.2986 0.798142L59.7431 0.2417V1.15508H59.6431V3.46524H59.7431V5.7754H59.6431V8.08556H59.7431V10.3957H59.6431V12.7059H59.7431V13.861C59.7431 14.1446 59.7615 14.4239 59.7971 14.6976L59.6979 14.7105C59.7726 15.2843 59.9218 15.8345 60.1356 16.3511L60.228 16.3129C60.4436 16.8338 60.7258 17.3201 61.064 17.7611L60.9846 17.8219C61.3305 18.273 61.7341 18.6773 62.1843 19.0239L62.2454 18.9447C62.6859 19.2838 63.1717 19.5668 63.6921 19.783L63.6537 19.8753C64.1702 20.0899 64.7203 20.2397 65.2939 20.3146L65.3068 20.2155C65.5806 20.2512 65.8598 20.2697 66.1434 20.2697H67.2964V20.3697H69.6024V20.2697H71.9085V20.3697H74.2145V20.2697H76.5205V20.3697H78.8265V20.2697H79.7384L79.1825 19.7129L79.2532 19.6422Z" stroke="#2A457A" stroke-opacity="0.8" stroke-width="0.2" stroke-dasharray="2 2"/>
<path d="M34.7723 30.4511H7.43872V22.6859C7.43872 20.1126 9.53005 18.0266 12.1097 18.0266H30.1013C32.681 18.0266 34.7723 20.1126 34.7723 22.6859V30.4511Z" fill="url(#paint1_linear_190_178)"/>
<path d="M27.3334 26.8704V22.6859C27.3334 20.1126 25.2423 18.0266 22.6626 18.0266H4.67098C2.09117 18.0266 0 20.1126 0 22.6859V72.9943C0 76.6601 2.97931 79.632 6.65437 79.632H73.245C76.9201 79.632 79.8994 76.6601 79.8994 72.9943V35.5358C79.8994 31.87 76.9201 28.8981 73.245 28.8981H29.3662C28.2435 28.8981 27.3334 27.9903 27.3334 26.8704Z" fill="url(#paint2_linear_190_178)"/>
<path d="M60.6791 38.0296H59.0766C58.1575 38.0296 57.4124 37.2863 57.4124 36.3695V34.7709C57.4124 33.8541 58.1575 33.1108 59.0766 33.1108H60.6791C61.5983 33.1108 62.3434 33.8541 62.3434 34.7709V36.3695C62.3434 37.2863 61.5983 38.0296 60.6791 38.0296Z" fill="url(#paint3_linear_190_178)"/>
<path d="M66.9663 38.0296H65.3637C64.4446 38.0296 63.6995 37.2863 63.6995 36.3695V34.7709C63.6995 33.8541 64.4446 33.1108 65.3637 33.1108H66.9663C67.8854 33.1108 68.6305 33.8541 68.6305 34.7709V36.3695C68.6305 37.2863 67.8854 38.0296 66.9663 38.0296Z" fill="url(#paint4_linear_190_178)"/>
<path d="M73.2534 38.0296H71.6508C70.7317 38.0296 69.9866 37.2863 69.9866 36.3695V34.7709C69.9866 33.8541 70.7317 33.1108 71.6508 33.1108H73.2534C74.1725 33.1108 74.9176 33.8541 74.9176 34.7709V36.3695C74.9176 37.2863 74.1725 38.0296 73.2534 38.0296Z" fill="url(#paint5_linear_190_178)"/>
<path d="M0 65.6541V72.9941C0 76.6599 2.97931 79.6318 6.65437 79.6318H73.245C76.9201 79.6318 79.8994 76.6599 79.8994 72.9941V65.6541H0Z" fill="url(#paint6_linear_190_178)"/>
<path d="M60.5 44.5163H41V25H60.5L70.0604 34.5684L60.5 44.5163Z" fill="#2A457A" fill-opacity="0.8"/>
<path d="M60.5 25H80V44.5164H60.5V25Z" fill="#2A457A"/>
<path d="M69.8589 29.6101L68.3146 35.1212L66.7085 29.6101H64.3711L67.3994 39.9986H69.2757L72.1859 29.6101H69.8589Z" fill="#E5E5E5"/>
<path d="M54.5058 36.7691C54.4555 36.8403 54.4015 36.9066 54.345 36.9662C54.0562 37.271 53.683 37.4254 53.2358 37.4254C51.9946 37.4254 50.9848 36.2287 50.9848 34.7577C50.9848 33.2865 51.9947 32.0896 53.2358 32.0896C53.6872 32.0896 54.122 32.2469 54.4937 32.5445L55.393 33.2647L56.6083 31.1327L55.7089 30.4124C54.977 29.8265 54.1218 29.5166 53.2358 29.5166C50.7976 29.5166 48.814 31.8677 48.814 34.7577C48.814 37.6475 50.7976 39.9985 53.2358 39.9985C54.2175 39.9985 55.1003 39.6144 55.7886 38.8878C55.9239 38.7451 56.052 38.5884 56.1695 38.4222L56.8669 37.4362L55.203 35.7833L54.5058 36.7691Z" fill="white"/>
<path d="M60.5055 37.3404C60.1276 37.2242 59.7885 36.9932 59.5456 36.6754L58.8165 35.7222L57.208 37.4501L57.9368 38.4032C58.59 39.2573 59.503 39.8046 60.5004 39.9555L61.4253 38.981L60.5055 37.3404Z" fill="white"/>
<path d="M60.5001 29.5522C60.3147 29.5804 60.1248 29.6264 59.9313 29.6954C58.9154 30.058 58.1961 31.0117 58.0541 32.1841C57.92 33.2915 58.3253 34.3569 59.1118 34.9646C59.1599 35.0017 59.2105 35.0345 59.2621 35.0615C59.2689 35.0651 59.7962 35.3438 60.5002 35.6762L61.4251 34.636L60.5002 32.8933C60.3935 32.8394 60.3096 32.7964 60.2551 32.7683C60.1989 32.6989 60.1955 32.6119 60.2031 32.5498C60.2124 32.4726 60.2603 32.2906 60.5002 32.1822L61.8408 30.7591L60.5001 29.5522Z" fill="white"/>
<path d="M64.1216 37.2246C64.3056 36.0032 63.8504 34.413 62.0214 33.6136C61.4197 33.3506 60.8422 33.0666 60.5001 32.894V35.6769C60.7407 35.7905 61.0017 35.9103 61.2699 36.0275C61.3493 36.0622 62.0438 36.3783 61.9844 36.7725C61.9371 37.0869 61.5726 37.4261 61.0662 37.4261C60.8724 37.4261 60.6821 37.3935 60.5 37.3369V39.9549C60.6862 39.983 60.8751 39.9992 61.0662 39.9992C62.5945 39.999 63.8795 38.8323 64.1216 37.2246Z" fill="#E5E5E5"/>
<path d="M60.5007 29.5523V32.1845C60.5195 32.1759 60.5368 32.1668 60.558 32.1593C61.3615 31.8715 62.1293 32.5766 62.1599 32.605L62.9867 33.4289L64.3835 31.4592L63.5526 30.6315C63.4921 30.5712 62.1856 29.296 60.5007 29.5523Z" fill="#E5E5E5"/>
<path d="M53.2137 64.1954H49.3946V75.8017C49.3946 77.5942 47.9377 79.0475 46.1407 79.0475H34.7899C32.9929 79.0475 31.536 77.5942 31.536 75.8017V64.1954H26.9495C23.715 64.1954 21.7451 60.6437 23.4638 57.9104L36.5959 37.0249C38.2086 34.4601 41.9547 34.4601 43.5673 37.0249L56.6994 57.9104C58.4181 60.6437 56.4483 64.1954 53.2137 64.1954Z" fill="url(#paint7_linear_190_178)"/>
<path d="M53.2139 64.1954H49.3947V75.8017C49.3947 77.5942 47.9379 79.0474 46.1408 79.0474H40.0818V35.1013C41.4215 35.1013 42.7612 35.7425 43.5675 37.0248L56.6996 57.9104C58.4183 60.6437 56.4485 64.1954 53.2139 64.1954Z" fill="url(#paint8_linear_190_178)"/>
<defs>
<linearGradient id="paint0_linear_190_178" x1="28.1289" y1="20.6151" x2="28.1289" y2="30.4572" gradientUnits="userSpaceOnUse">
<stop stop-color="#FF9100"/>
<stop offset="1" stop-color="#E63950"/>
</linearGradient>
<linearGradient id="paint1_linear_190_178" x1="21.1056" y1="20.6151" x2="21.1056" y2="30.4572" gradientUnits="userSpaceOnUse">
<stop stop-color="#FDBF00"/>
<stop offset="1" stop-color="#FF9100"/>
</linearGradient>
<linearGradient id="paint2_linear_190_178" x1="9.10462" y1="23.497" x2="55.6693" y2="70.1786" gradientUnits="userSpaceOnUse">
<stop stop-color="#FFDA2D"/>
<stop offset="1" stop-color="#FDBF00"/>
</linearGradient>
<linearGradient id="paint3_linear_190_178" x1="59.3301" y1="35.1538" x2="61.5788" y2="36.8715" gradientUnits="userSpaceOnUse">
<stop stop-color="#76E2F8"/>
<stop offset="1" stop-color="#48B2E3"/>
</linearGradient>
<linearGradient id="paint4_linear_190_178" x1="65.6172" y1="35.1538" x2="67.8659" y2="36.8715" gradientUnits="userSpaceOnUse">
<stop stop-color="#76E2F8"/>
<stop offset="1" stop-color="#48B2E3"/>
</linearGradient>
<linearGradient id="paint5_linear_190_178" x1="71.9042" y1="35.1538" x2="74.153" y2="36.8715" gradientUnits="userSpaceOnUse">
<stop stop-color="#76E2F8"/>
<stop offset="1" stop-color="#48B2E3"/>
</linearGradient>
<linearGradient id="paint6_linear_190_178" x1="39.9497" y1="71.5212" x2="39.9497" y2="84.4681" gradientUnits="userSpaceOnUse">
<stop stop-color="#FF9100" stop-opacity="0"/>
<stop offset="1" stop-color="#FF9100"/>
</linearGradient>
<linearGradient id="paint7_linear_190_178" x1="30.6004" y1="50.0762" x2="66.2686" y2="85.8339" gradientUnits="userSpaceOnUse">
<stop stop-color="#B9DD39"/>
<stop offset="1" stop-color="#0B799D"/>
</linearGradient>
<linearGradient id="paint8_linear_190_178" x1="42.5813" y1="58.3752" x2="-4.24045" y2="25.1052" gradientUnits="userSpaceOnUse">
<stop stop-color="#0B799D" stop-opacity="0"/>
<stop offset="0.3645" stop-color="#096380" stop-opacity="0.365"/>
<stop offset="0.76" stop-color="#084F67" stop-opacity="0.76"/>
<stop offset="1" stop-color="#07485E"/>
</linearGradient>
</defs>
</svg>
